<?xml version="1.0" encoding="UTF-8" standalone="no"?>
<svg version="1.0" xmlns="http://www.w3.org/2000/svg" width="533pt" height="99pt" viewBox="0 0 533 99" preserveAspectRatio="xMidYMid meet">
  <g id="acrossj-logo" fill-rule="evenodd">
    <g id="acrossj" transform="translate(0.000000,99.000000) scale(0.100000,-0.100000)">
      <path d="M332 728 c-77 -128 -181 -299 -231 -381 l-90 -147 103 0 102 0 46 87 46 88 133 0 134 0 3 -87 3 -88 104 0 c63 0 105 4 107 11 2 6 20 2 48 -10 79 -36 196 -27 313 24 13 5 16 4 11 -9 -5 -14 6 -16 90 -16 93 0 96 1 96 23 0 34 58 264 75 297 24 47 79 82 135 88 28 2 50 2 50 0 0 -3 -11 -32 -25 -67 -48 -118 -43 -229 14 -294 78 -88 292 -89 406 -2 41 30 47 31 63 4 48 -76 269 -89 396 -24 l48 25 29 -25 c38 -31 82 -40 197 -39 85 0 97 3 162 36 39 20 70 33 70 28 0 -4 -7 -27 -15 -51 -24 -69 -66 -89 -103 -49 l-19 21 -69 -27 c-92 -36 -95 -40 -57 -74 74 -67 239 -66 337 1 38 26 74 78 83 119 6 34 10 35 49 15 44 -23 178 -20 233 5 52 24 65 25 57 5 -4 -12 5 -15 53 -15 32 0 60 -3 63 -6 6 -5 -19 -103 -37 -147 -7 -16 0 -18 85 -15 l93 3 23 104 c13 57 25 106 27 108 3 2 22 -6 43 -19 33 -20 53 -23 134 -23 85 0 101 3 153 29 l58 30 15 -22 c26 -38 67 -52 148 -52 52 0 93 6 128 20 63 24 69 24 62 5 -5 -13 15 -15 150 -15 155 0 156 0 156 23 0 12 16 85 34 162 33 136 35 141 76 177 79 70 172 76 178 12 2 -25 -64 -305 -85 -361 -4 -10 15 -13 91 -13 l96 0 0 25 c0 14 20 106 45 205 51 202 53 231 25 278 -44 72 -176 83 -284 24 l-56 -30 0 29 0 29 -84 0 c-76 0 -84 -2 -89 -20 -5 -20 -5 -20 -42 1 -27 16 -58 23 -123 27 -110 6 -184 -9 -257 -53 l-57 -35 -24 30 c-14 15 -45 36 -69 46 -61 23 -184 16 -246 -14 -56 -27 -62 -27 -54 -2 6 19 2 20 -84 20 -84 0 -91 -1 -91 -20 0 -25 -1 -25 -47 3 -34 19 -52 22 -158 22 -125 0 -123 0 -247 -63 -4 -2 -5 10 -2 27 l6 31 -90 0 c-97 0 -101 -3 -102 -67 0 -28 -16 -30 -25 -3 -3 11 -23 32 -42 48 -35 26 -41 27 -157 27 -112 0 -125 -2 -173 -27 -28 -15 -55 -33 -58 -39 -5 -7 -18 0 -39 20 -43 42 -77 52 -172 52 -115 0 -177 -19 -232 -71 l-23 -22 -40 37 c-55 50 -81 58 -179 58 -77 0 -109 -7 -183 -38 -13 -5 -16 -3 -11 8 7 20 -65 32 -128 22 -45 -8 -112 -38 -123 -55 -14 -22 -31 -10 -27 20 l4 30 -85 0 c-75 0 -86 -2 -92 -19 -5 -18 -8 -18 -53 7 -40 23 -58 26 -132 26 -145 -1 -255 -62 -322 -181 -17 -30 -32 -52 -35 -50 -5 6 -43 333 -43 380 l0 37 -118 0 -119 0 -141 -232z m231 -90 l7 -108 -85 0 c-47 0 -85 2 -85 5 0 5 54 104 118 215 25 43 26 44 32 20 4 -14 10 -73 13 -132z m1872 -16 c9 -21 15 -23 68 -20 l59 3 2 -47 c3 -76 39 -104 171 -133 105 -23 117 -30 113 -63 -7 -60 -159 -65 -174 -6 -6 23 -11 25 -48 23 -36 -3 -41 -1 -39 16 4 36 -18 84 -48 106 -17 12 -76 33 -131 48 -116 30 -139 49 -99 82 35 29 112 23 126 -9z m450 0 c10 -22 13 -23 92 -17 l81 7 -15 -63 c-9 -35 -17 -65 -18 -67 -1 -2 -18 6 -37 18 -19 11 -57 26 -84 34 -27 8 -75 21 -106 30 -45 13 -58 21 -58 36 0 30 39 51 90 48 36 -2 47 -8 55 -26z m653 12 c16 -11 22 -24 20 -42 -3 -26 -5 -27 -108 -38 -122 -13 -151 -20 -202 -46 -36 -17 -38 -17 -38 -1 0 10 5 35 11 56 11 41 19 43 96 28 36 -7 45 -5 60 12 40 44 120 60 161 31z m1035 7 c28 -11 38 -30 30 -59 -4 -17 -17 -20 -93 -26 -49 -4 -112 -14 -142 -22 -71 -18 -68 -20 -68 26 0 44 1 44 67 31 38 -7 44 -6 69 20 35 36 89 48 137 30z m-3438 -26 c14 -13 25 -31 25 -40 0 -14 8 -16 49 -10 l49 7 -23 -92 c-13 -50 -25 -93 -27 -95 -2 -2 -20 0 -41 4 -34 8 -39 6 -76 -30 -35 -35 -44 -39 -89 -39 -43 0 -54 4 -71 26 -37 47 -22 166 30 232 51 66 129 82 174 37z m820 19 c24 -10 45 -58 45 -107 0 -62 -50 -159 -97 -188 -53 -33 -119 -31 -150 5 -56 65 -11 221 81 277 31 19 89 25 121 13z m2110 -9 c58 -23 71 -94 34 -175 -26 -57 -44 -77 -93 -102 -84 -43 -176 6 -176 92 0 53 19 97 61 139 60 59 112 73 174 46z m-1776 -201 c52 -12 101 -30 109 -38 51 -51 -104 -100 -159 -50 -11 10 -19 24 -19 32 0 11 -10 14 -46 9 -39 -4 -44 -2 -39 12 4 9 12 29 17 44 8 20 15 26 27 22 9 -4 58 -18 110 -31z m1231 4 c0 -25 -40 -77 -69 -93 -43 -22 -113 -30 -140 -16 -46 25 -12 89 59 109 53 15 150 15 150 0z m1039 -17 c-27 -76 -166 -132 -213 -85 -52 51 36 113 161 114 l62 0 -10 -29z"/>
      <path d="M3131 913 c-7 -27 -14 -56 -17 -66 -5 -16 2 -18 87 -15 l93 3 13 50 c20 78 23 75 -76 75 l-89 0 -11 -47z"/>
    </g>
  </g>
</svg>
