<?xml version="1.0" encoding="iso-8859-1"?>
<!-- Generator: Adobe Illustrator 18.0.0, SVG Export Plug-In . SVG Version: 6.00 Build 0)  -->
<!DOCTYPE svg PUBLIC "-//W3C//DTD SVG 1.1//EN" "http://www.w3.org/Graphics/SVG/1.1/DTD/svg11.dtd">
<svg version="1.1" id="Capa_1" xmlns="http://www.w3.org/2000/svg" xmlns:xlink="http://www.w3.org/1999/xlink" x="0px" y="0px"
	 viewBox="0 0 460 460" style="enable-background:new 0 0 460 460;" xml:space="preserve">
<g id="XMLID_27_">
	<g id="XMLID_29_">
		<path id="XMLID_71_" d="M445.752,398.176c-6.512-6.513-17.072-6.513-23.585,0l-28.469,28.469H261.095
			c0.635-140.887,0.744-131.191,0.264-134.007l-44.676,19.78l-0.062,114.228h-82.849c-9.21,0-16.677,7.467-16.677,16.677
			c0,9.21,7.467,16.677,16.677,16.677h266.833c4.423,0,8.665-1.757,11.792-4.885l33.354-33.354
			C452.266,415.248,452.266,404.689,445.752,398.176z"/>
	</g>
	<path id="XMLID_487_" d="M102.053,278.057c10.113-4.477,81.653-36.151,94.442-41.814l-3.441-80.392l23.829,76.626
		c2.112,6.791,7.483,12.074,14.308,14.074l81.425,23.859c11.256,3.298,23.054-3.153,26.352-14.408
		c3.297-11.256-3.153-23.054-14.409-26.352l-70.498-20.658l-20.449-65.756l23.385,37.283l8.4-18.526
		c7.222-15.927,0.165-34.694-15.762-41.916l-51.428-23.32c-15.927-7.222-34.693-0.165-41.915,15.762L94.753,248.234
		C89.3,263.21,96.556,273.327,102.053,278.057z"/>
	<circle id="XMLID_488_" cx="258.083" cy="46.886" r="46.874"/>
	<path id="XMLID_493_" d="M354.356,227.147l10.435-4.62c8.424-3.73,12.226-13.58,8.498-22.001
		c-3.73-8.426-13.585-12.222-22.001-8.498l-31.702,14.036l10.943,3.207C340.778,212.273,349.024,218.805,354.356,227.147z"/>
	<path id="XMLID_494_" d="M61.55,356.784l187.302-82.927c-27.661-8.105-26.693-7.822-32.168-9.426
		c-4.818-1.412-8.951-4.027-12.208-7.404l-156.43,69.258l-6.075-13.723c-3.662-8.272-13.487-12.268-22.001-8.498
		c-8.513,3.769-12.161,13.727-8.498,22.001l6.123,13.829c-7.38,4.326-10.205,13.443-6.805,21.124
		c0.172,0.389,0.358,0.768,0.555,1.138c3.737,6.979,11.968,10.436,19.659,8.027l6.122,13.827c3.725,8.416,13.575,12.229,22,8.498
		c8.495-3.761,12.17-13.708,8.498-22.001L61.55,356.784z"/>
</g>
<g>
</g>
<g>
</g>
<g>
</g>
<g>
</g>
<g>
</g>
<g>
</g>
<g>
</g>
<g>
</g>
<g>
</g>
<g>
</g>
<g>
</g>
<g>
</g>
<g>
</g>
<g>
</g>
<g>
</g>
</svg>
